HIERARCHY
ROOT hip
{
	OFFSET 0.000000 0.000000 0.000000 
	CHANNELS 6 Xposition Yposition Zposition Xrotation Zrotation Yrotation
	JOINT abdomen
	{
		OFFSET 0.000000 3.402643 0.000000 
		CHANNELS 3 Xrotation Zrotation Yrotation
		JOINT chest
		{
			OFFSET 0.000000 8.438565 -0.680529 
			CHANNELS 3 Xrotation Zrotation Yrotation
			JOINT neck
			{
				OFFSET 0.000000 10.207942 -0.272212 
				CHANNELS 3 Xrotation Zrotation Yrotation
				JOINT head
				{
					OFFSET 0.000000 3.130431 0.000000 
					CHANNELS 3 Xrotation Zrotation Yrotation
					End Site
					{
						OFFSET 0.000000 3.130435 0.000000 
					}
				}
			}
			JOINT lCollar
			{
				OFFSET 3.470700 6.669187 -0.816635 
				CHANNELS 3 Yrotation Zrotation Xrotation
				JOINT lShldr
				{
					OFFSET 3.198488 0.000000 0.000000 
					CHANNELS 3 Zrotation Yrotation Xrotation
					JOINT lForeArm
					{
						OFFSET 10.139888 0.000000 0.000000 
						CHANNELS 3 Yrotation Zrotation Xrotation
						JOINT lHand
						{
							OFFSET 8.370511 0.000000 0.000000 
							CHANNELS 3 Zrotation Yrotation Xrotation
							End Site
							{
								OFFSET 4.083176 0.000000 0.000000 
							}
						}
					}
				}
			}
			JOINT rCollar
			{
				OFFSET -3.470700 6.669187 -0.816635 
				CHANNELS 3 Yrotation Zrotation Xrotation
				JOINT rShldr
				{
					OFFSET -3.198488 0.000000 0.000000 
					CHANNELS 3 Zrotation Yrotation Xrotation
					JOINT rForeArm
					{
						OFFSET -10.139888 0.000000 0.000000 
						CHANNELS 3 Yrotation Zrotation Xrotation
						JOINT rHand
						{
							OFFSET -8.370511 0.000000 0.000000 
							CHANNELS 3 Zrotation Yrotation Xrotation
							End Site
							{
								OFFSET -4.083176 0.000000 0.000000 
							}
						}
					}
				}
			}
		}
	}
	JOINT lThigh
	{
		OFFSET 5.308129 -1.633274 1.361059 
		CHANNELS 3 Xrotation Zrotation Yrotation
		JOINT lShin
		{
			OFFSET -2.041588 -20.007561 0.000000 
			CHANNELS 3 Xrotation Zrotation Yrotation
			JOINT lFoot
			{
				OFFSET 0.000000 -19.190928 -1.224953 
				CHANNELS 3 Xrotation Yrotation Zrotation
				End Site
				{
					OFFSET 0.000000 -2.449906 4.627600 
				}
			}
		}
	}
	JOINT rThigh
	{
		OFFSET -5.308129 -1.633274 1.361059 
		CHANNELS 3 Xrotation Zrotation Yrotation
		JOINT rShin
		{
			OFFSET 2.041588 -20.007561 0.000000 
			CHANNELS 3 Xrotation Zrotation Yrotation
			JOINT rFoot
			{
				OFFSET 0.000000 -19.190928 -1.224953 
				CHANNELS 3 Xrotation Yrotation Zrotation
				End Site
				{
					OFFSET 0.000000 -2.449906 4.627600 
				}
			}
		}
	}
}
MOTION
Frames: 6
Frame Time: 0.016667
-0.556081 48.890488 0.688335 4.125271 -0.529985 -17.803574 8.255935 -1.815896 -1.358287 1.224204 2.626609 0.928997 -8.457032 0.000000 0.000000 21.440994 -1.888666 12.379736 -23.686127 -1.604336 19.167446 -54.460003 -30.265657 -12.267138 -67.918564 -2.544918 -86.997200 23.217121 -11.392597 10.682140 21.656965 9.879173 13.990914 63.839340 1.249589 -4.672288 94.837601 3.690510 143.469971 -17.991236 21.125061 13.215827 -2.831192 7.190357 16.558701 51.279705 -2.629113 -8.276291 5.673669 -2.811935 -11.017532 -11.695885 0.430296 -14.358984 26.634827 3.388557 9.157832 -12.723584 -7.406169 0.727832 
-0.569112 48.888477 0.688022 4.037290 -0.530014 -17.793808 8.255935 -1.815896 -1.358287 1.224204 2.626609 0.928997 -8.457032 0.000000 0.000000 21.440994 -1.888666 12.379736 -23.880270 -1.720247 19.036327 -54.455841 -30.262447 -12.175208 -68.006584 -2.540463 -87.004753 23.217121 -11.392597 10.682140 21.563503 9.837956 14.025858 64.026230 1.266378 -5.375403 94.848724 3.608897 143.477585 -17.991236 21.125061 13.215827 -2.830986 7.092905 16.563927 51.380184 -2.523712 -8.254870 5.523079 -2.900368 -11.054731 -11.604353 0.343602 -14.340370 26.567039 3.320203 9.031675 -12.637313 -7.235669 0.820072 
-0.581282 48.887291 0.685389 4.039727 -0.446328 -17.793552 8.255935 -1.815896 -1.358287 1.224204 2.626609 0.928997 -8.457032 0.000000 0.000000 21.440994 -1.888666 12.379736 -23.965605 -1.720523 19.051422 -54.372173 -30.257328 -12.259496 -68.006584 -2.540463 -87.004753 23.217121 -11.392597 10.682140 21.653803 9.886381 14.008798 64.396950 1.361097 -6.522772 94.837601 3.690510 143.469971 -17.991236 21.125061 13.215827 -2.830986 7.092904 16.563927 51.380184 -2.523712 -8.254869 5.575833 -2.867474 -11.020713 -11.686831 0.332242 -14.257993 26.565239 3.388703 8.871484 -12.522320 -7.033362 0.931262 
-0.593453 48.886105 0.682759 4.039121 -0.353362 -17.783575 8.255935 -1.815896 -1.358287 1.224204 2.626609 0.928997 -8.457032 0.000000 0.000000 21.440994 -1.888666 12.379736 -24.050936 -1.720858 19.066740 -54.289776 -30.247213 -12.347280 -68.006584 -2.540463 -87.004753 23.217121 -11.392597 10.682140 21.741741 9.944239 13.991720 64.774750 1.470257 -7.668751 94.825432 3.782676 143.471237 -17.991236 21.125061 13.215827 -2.830985 7.092904 16.563927 51.380184 -2.523711 -8.254869 5.629699 -2.827278 -11.004332 -11.781645 0.332894 -14.147482 26.561144 3.480811 8.696544 -12.425160 -6.835321 1.038471 
-0.606635 48.885788 0.681256 4.039121 -0.353362 -17.783575 8.255935 -1.815896 -1.358287 1.224204 2.626609 0.928997 -8.457032 0.000000 0.000000 21.440994 -1.888666 12.379736 -24.304108 -1.750257 19.083838 -54.215324 -30.075949 -12.341234 -68.006584 -2.540463 -87.004753 23.217121 -11.392597 10.682140 21.816099 9.932292 13.984829 65.055725 1.387879 -8.554763 94.825432 3.782676 143.471237 -17.991236 21.125061 13.215827 -2.840516 6.992851 16.549309 51.292347 -2.541023 -8.237146 5.608673 -2.840028 -11.019915 -11.781645 0.332893 -14.147482 26.561144 3.480809 8.696544 -12.425160 -6.835320 1.038471 
-0.619816 48.885471 0.679754 4.039121 -0.353362 -17.783575 8.255935 -1.815896 -1.358287 1.224204 2.626609 0.928997 -8.457032 0.000000 0.000000 21.440994 -1.888666 12.379736 -24.556942 -1.784013 19.109241 -54.131065 -29.897795 -12.343054 -68.006584 -2.540463 -87.004753 23.217121 -11.392597 10.682140 21.896069 9.935808 13.984169 65.341354 1.322519 -9.445510 94.825432 3.782676 143.471237 -17.991236 21.125061 13.215827 -2.831792 6.900817 16.535400 51.194279 -2.541088 -8.239824 5.582626 -2.830000 -11.038860 -11.781645 0.332894 -14.147482 26.561144 3.480809 8.696544 -12.425160 -6.835321 1.038471 
